<?xml version="1.0" encoding="UTF-8" standalone="yes"?>
<!DOCTYPE svg PUBLIC "-//W3C//DTD SVG 1.0//EN" "http://www.w3.org/TR/2001/REC-SVG-20010904/DTD/svg10.dtd">
<svg height="700" width="1300" xmlns="http://www.w3.org/2000/svg" xmlns:svg="http://www.w3.org/2000/svg" xmlns:xlink="http://www.w3.org/1999/xlink">
	<text style="font-size: 15; stroke: none" x="145" y="620">Chr01</text>
	<text style="font-size:  20; stroke: none" x="479.166666666667" y="88">GenomeSyn coverage</text>
	<line style="stroke: black; stroke-width: 1" x1="100" x2="100" y1="600" y2="100" />
	<line style="stroke: black; stroke-width: 1" x1="100" x2="1150" y1="600" y2="600" />
	<polygon points="97,100 103,100 100,97" style="fill: #000000; stroke: #000000; stroke-width: 0.1" />
	<polygon points="1150,597 1150,603 1155,600" style="fill: #000000; stroke: #000000; stroke-width: 0.1" />
	<rect height="25" style="fill: #499272; rx: 5; ry: 5; stroke: #499272; stroke-width: 1" width="25" x="1060" y="100" />
	<text style="font-size: 15; stroke: none" x="1095" y="115">ZS97</text>
	<text style="font-size: 10; stroke: none" x="70" y="605">0%</text>
	<line style="stroke: black; stroke-width: 1" x1="100" x2="105" y1="600" y2="600" />
	<line style="stroke: black; stroke-width: 1" x1="100" x2="102" y1="590" y2="590" />
	<line style="stroke: black; stroke-width: 1" x1="100" x2="102" y1="580" y2="580" />
	<line style="stroke: black; stroke-width: 1" x1="100" x2="102" y1="570" y2="570" />
	<line style="stroke: black; stroke-width: 1" x1="100" x2="102" y1="560" y2="560" />
	<line style="stroke: black; stroke-width: 1" x1="100" x2="102" y1="550" y2="550" />
	<line style="stroke: black; stroke-width: 1" x1="100" x2="102" y1="540" y2="540" />
	<line style="stroke: black; stroke-width: 1" x1="100" x2="102" y1="530" y2="530" />
	<line style="stroke: black; stroke-width: 1" x1="100" x2="102" y1="520" y2="520" />
	<line style="stroke: black; stroke-width: 1" x1="100" x2="102" y1="510" y2="510" />
	<text style="font-size: 10; stroke: none" x="70" y="505">25%</text>
	<line style="stroke: black; stroke-width: 1" x1="100" x2="105" y1="500" y2="500" />
	<line style="stroke: black; stroke-width: 1" x1="100" x2="102" y1="490" y2="490" />
	<line style="stroke: black; stroke-width: 1" x1="100" x2="102" y1="480" y2="480" />
	<line style="stroke: black; stroke-width: 1" x1="100" x2="102" y1="470" y2="470" />
	<line style="stroke: black; stroke-width: 1" x1="100" x2="102" y1="460" y2="460" />
	<line style="stroke: black; stroke-width: 1" x1="100" x2="102" y1="450" y2="450" />
	<line style="stroke: black; stroke-width: 1" x1="100" x2="102" y1="440" y2="440" />
	<line style="stroke: black; stroke-width: 1" x1="100" x2="102" y1="430" y2="430" />
	<line style="stroke: black; stroke-width: 1" x1="100" x2="102" y1="420" y2="420" />
	<line style="stroke: black; stroke-width: 1" x1="100" x2="102" y1="410" y2="410" />
	<text style="font-size: 10; stroke: none" x="70" y="405">50%</text>
	<line style="stroke: black; stroke-width: 1" x1="100" x2="105" y1="400" y2="400" />
	<line style="stroke: black; stroke-width: 1" x1="100" x2="102" y1="390" y2="390" />
	<line style="stroke: black; stroke-width: 1" x1="100" x2="102" y1="380" y2="380" />
	<line style="stroke: black; stroke-width: 1" x1="100" x2="102" y1="370" y2="370" />
	<line style="stroke: black; stroke-width: 1" x1="100" x2="102" y1="360" y2="360" />
	<line style="stroke: black; stroke-width: 1" x1="100" x2="102" y1="350" y2="350" />
	<line style="stroke: black; stroke-width: 1" x1="100" x2="102" y1="340" y2="340" />
	<line style="stroke: black; stroke-width: 1" x1="100" x2="102" y1="330" y2="330" />
	<line style="stroke: black; stroke-width: 1" x1="100" x2="102" y1="320" y2="320" />
	<line style="stroke: black; stroke-width: 1" x1="100" x2="102" y1="310" y2="310" />
	<text style="font-size: 10; stroke: none" x="70" y="305">75%</text>
	<line style="stroke: black; stroke-width: 1" x1="100" x2="105" y1="300" y2="300" />
	<line style="stroke: black; stroke-width: 1" x1="100" x2="102" y1="290" y2="290" />
	<line style="stroke: black; stroke-width: 1" x1="100" x2="102" y1="280" y2="280" />
	<line style="stroke: black; stroke-width: 1" x1="100" x2="102" y1="270" y2="270" />
	<line style="stroke: black; stroke-width: 1" x1="100" x2="102" y1="260" y2="260" />
	<line style="stroke: black; stroke-width: 1" x1="100" x2="102" y1="250" y2="250" />
	<line style="stroke: black; stroke-width: 1" x1="100" x2="102" y1="240" y2="240" />
	<line style="stroke: black; stroke-width: 1" x1="100" x2="102" y1="230" y2="230" />
	<line style="stroke: black; stroke-width: 1" x1="100" x2="102" y1="220" y2="220" />
	<line style="stroke: black; stroke-width: 1" x1="100" x2="102" y1="210" y2="210" />
	<text style="font-size: 10; stroke: none" x="70" y="205">100%</text>
	<line style="stroke: black; stroke-width: 1" x1="100" x2="105" y1="200" y2="200" />
	<line style="stroke: black; stroke-width: 1" x1="100" x2="102" y1="190" y2="190" />
	<line style="stroke: black; stroke-width: 1" x1="100" x2="102" y1="180" y2="180" />
	<line style="stroke: black; stroke-width: 1" x1="100" x2="102" y1="170" y2="170" />
	<line style="stroke: black; stroke-width: 1" x1="100" x2="102" y1="160" y2="160" />
	<line style="stroke: black; stroke-width: 1" x1="100" x2="102" y1="150" y2="150" />
	<line style="stroke: black; stroke-width: 1" x1="100" x2="102" y1="140" y2="140" />
	<line style="stroke: black; stroke-width: 1" x1="100" x2="102" y1="130" y2="130" />
	<line style="stroke: black; stroke-width: 1" x1="100" x2="102" y1="120" y2="120" />
	<line style="stroke: black; stroke-width: 1" x1="100" x2="102" y1="110" y2="110" />
	<rect height="395.037911646586" style="fill: #499272; rx: 5; ry: 5; stroke: black; stroke-width: 1" width="25" x="150" y="204.962088353414" />
	<text style="font-size: 10; stroke: none" x="148" y="199.962088353414">98.76%</text>
	<text style="font-size: 15; stroke: none" x="220" y="620">Chr02</text>
	<rect height="395.253818181818" style="fill: #499272; rx: 5; ry: 5; stroke: black; stroke-width: 1" width="25" x="225" y="204.746181818182" />
	<text style="font-size: 10; stroke: none" x="223" y="199.746181818182">98.81%</text>
	<text style="font-size: 15; stroke: none" x="295" y="620">Chr03</text>
	<rect height="395.64119760479" style="fill: #499272; rx: 5; ry: 5; stroke: black; stroke-width: 1" width="25" x="300" y="204.35880239521" />
	<text style="font-size: 10; stroke: none" x="298" y="199.35880239521">98.91%</text>
	<text style="font-size: 15; stroke: none" x="370" y="620">Chr04</text>
	<rect height="395.579333333333" style="fill: #499272; rx: 5; ry: 5; stroke: black; stroke-width: 1" width="25" x="375" y="204.420666666667" />
	<text style="font-size: 10; stroke: none" x="373" y="199.420666666667">98.89%</text>
	<text style="font-size: 15; stroke: none" x="445" y="620">Chr05</text>
	<rect height="396.048095238095" style="fill: #499272; rx: 5; ry: 5; stroke: black; stroke-width: 1" width="25" x="450" y="203.951904761905" />
	<text style="font-size: 10; stroke: none" x="448" y="198.951904761905">99.01%</text>
	<text style="font-size: 15; stroke: none" x="520" y="620">Chr06</text>
	<rect height="395.121836327346" style="fill: #499272; rx: 5; ry: 5; stroke: black; stroke-width: 1" width="25" x="525" y="204.878163672654" />
	<text style="font-size: 10; stroke: none" x="523" y="199.878163672654">98.78%</text>
	<text style="font-size: 15; stroke: none" x="595" y="620">Chr07</text>
	<rect height="395.404523809524" style="fill: #499272; rx: 5; ry: 5; stroke: black; stroke-width: 1" width="25" x="600" y="204.595476190476" />
	<text style="font-size: 10; stroke: none" x="598" y="199.595476190476">98.85%</text>
	<text style="font-size: 15; stroke: none" x="670" y="620">Chr08</text>
	<rect height="394.558186397985" style="fill: #499272; rx: 5; ry: 5; stroke: black; stroke-width: 1" width="25" x="675" y="205.441813602015" />
	<text style="font-size: 10; stroke: none" x="673" y="200.441813602015">98.64%</text>
	<text style="font-size: 15; stroke: none" x="745" y="620">Chr09</text>
	<rect height="394.288877284595" style="fill: #499272; rx: 5; ry: 5; stroke: black; stroke-width: 1" width="25" x="750" y="205.711122715405" />
	<text style="font-size: 10; stroke: none" x="748" y="200.711122715405">98.57%</text>
	<text style="font-size: 15; stroke: none" x="820" y="620">Chr10</text>
	<rect height="395.245145631068" style="fill: #499272; rx: 5; ry: 5; stroke: black; stroke-width: 1" width="25" x="825" y="204.754854368932" />
	<text style="font-size: 10; stroke: none" x="823" y="199.754854368932">98.81%</text>
	<text style="font-size: 15; stroke: none" x="895" y="620">Chr11</text>
	<rect height="394.274103852596" style="fill: #499272; rx: 5; ry: 5; stroke: black; stroke-width: 1" width="25" x="900" y="205.725896147404" />
	<text style="font-size: 10; stroke: none" x="898" y="200.725896147404">98.57%</text>
	<text style="font-size: 15; stroke: none" x="970" y="620">Chr12</text>
	<rect height="395.310407673861" style="fill: #499272; rx: 5; ry: 5; stroke: black; stroke-width: 1" width="25" x="975" y="204.689592326139" />
	<text style="font-size: 10; stroke: none" x="973" y="199.689592326139">98.83%</text>
	<!--
	Generated using the Perl SVG Module V2.85
	by Ronan Oger
	Info: http://www.roitsystems.com/
	-->
</svg>
